<?xml version="1.0" encoding="utf-8" standalone="no"?>
<!DOCTYPE svg PUBLIC "-//W3C//DTD SVG 1.1//EN"
  "http://www.w3.org/Graphics/SVG/1.1/DTD/svg11.dtd">
<svg xmlns:xlink="http://www.w3.org/1999/xlink" width="2028.7pt" height="1094.8875pt" viewBox="0 0 2028.7 1094.8875" xmlns="http://www.w3.org/2000/svg" version="1.1">
 <metadata>
  <rdf:RDF xmlns:dc="http://purl.org/dc/elements/1.1/" xmlns:cc="http://creativecommons.org/ns#" xmlns:rdf="http://www.w3.org/1999/02/22-rdf-syntax-ns#">
   <cc:Work>
    <dc:type rdf:resource="http://purl.org/dc/dcmitype/StillImage"/>
    <dc:date>2025-07-29T17:02:22.482329</dc:date>
    <dc:format>image/svg+xml</dc:format>
    <dc:creator>
     <cc:Agent>
      <dc:title>Matplotlib v3.9.2, https://matplotlib.org/</dc:title>
     </cc:Agent>
    </dc:creator>
   </cc:Work>
  </rdf:RDF>
 </metadata>
 <defs>
  <style type="text/css">*{stroke-linejoin: round; stroke-linecap: butt}</style>
 </defs>
 <g id="figure_1">
  <g id="patch_1">
   <path d="M 0 1094.8875 
L 2028.7 1094.8875 
L 2028.7 0 
L 0 0 
z
" style="fill: #ffffff"/>
  </g>
  <g id="axes_1">
   <g id="patch_2">
    <path d="M 120.7 396 
L 595.9 396 
L 595.9 7.2 
L 120.7 7.2 
z
" style="fill: #ffffff"/>
   </g>
   <g id="matplotlib.axis_1">
    <g id="xtick_1">
     <g id="line2d_1">
      <defs>
       <path id="m033ac2ed13" d="M 0 0 
L 0 20 
" style="stroke: #000000; stroke-width: 5"/>
      </defs>
      <g>
       <use xlink:href="#m033ac2ed13" x="142.3" y="396" style="fill: #f8d941; stroke: #000000; stroke-width: 5"/>
      </g>
     </g>
     <g id="text_1">
      <!-- 0 -->
      <g transform="translate(127.3 461.1625) scale(0.6 -0.6)">
       <defs>
        <path id="TimesNewRomanPSMT-30" d="M 231 2094 
Q 231 2819 450 3342 
Q 669 3866 1031 4122 
Q 1313 4325 1613 4325 
Q 2100 4325 2488 3828 
Q 2972 3213 2972 2159 
Q 2972 1422 2759 906 
Q 2547 391 2217 158 
Q 1888 -75 1581 -75 
Q 975 -75 572 641 
Q 231 1244 231 2094 
z
M 844 2016 
Q 844 1141 1059 588 
Q 1238 122 1591 122 
Q 1759 122 1940 273 
Q 2122 425 2216 781 
Q 2359 1319 2359 2297 
Q 2359 3022 2209 3506 
Q 2097 3866 1919 4016 
Q 1791 4119 1609 4119 
Q 1397 4119 1231 3928 
Q 1006 3669 925 3112 
Q 844 2556 844 2016 
z
" transform="scale(0.015625)"/>
       </defs>
       <use xlink:href="#TimesNewRomanPSMT-30"/>
      </g>
     </g>
    </g>
    <g id="xtick_2">
     <g id="line2d_2">
      <g>
       <use xlink:href="#m033ac2ed13" x="574.3" y="396" style="fill: #f8d941; stroke: #000000; stroke-width: 5"/>
      </g>
     </g>
     <g id="text_2">
      <!-- 100 -->
      <g transform="translate(529.3 461.1625) scale(0.6 -0.6)">
       <defs>
        <path id="TimesNewRomanPSMT-31" d="M 750 3822 
L 1781 4325 
L 1884 4325 
L 1884 747 
Q 1884 391 1914 303 
Q 1944 216 2037 169 
Q 2131 122 2419 116 
L 2419 0 
L 825 0 
L 825 116 
Q 1125 122 1212 167 
Q 1300 213 1334 289 
Q 1369 366 1369 747 
L 1369 3034 
Q 1369 3497 1338 3628 
Q 1316 3728 1258 3775 
Q 1200 3822 1119 3822 
Q 1003 3822 797 3725 
L 750 3822 
z
" transform="scale(0.015625)"/>
       </defs>
       <use xlink:href="#TimesNewRomanPSMT-31"/>
       <use xlink:href="#TimesNewRomanPSMT-30" x="50"/>
       <use xlink:href="#TimesNewRomanPSMT-30" x="100"/>
      </g>
     </g>
    </g>
   </g>
   <g id="matplotlib.axis_2">
    <g id="ytick_1">
     <g id="line2d_3">
      <defs>
       <path id="m95d66453fd" d="M 0 0 
L -20 0 
" style="stroke: #000000; stroke-width: 5"/>
      </defs>
      <g>
       <use xlink:href="#m95d66453fd" x="120.7" y="381.511548" style="fill: #f8d941; stroke: #000000; stroke-width: 5"/>
      </g>
     </g>
     <g id="text_3">
      <!-- 0 -->
      <g transform="translate(67.2 402.342798) scale(0.6 -0.6)">
       <use xlink:href="#TimesNewRomanPSMT-30"/>
      </g>
     </g>
    </g>
    <g id="ytick_2">
     <g id="line2d_4">
      <g>
       <use xlink:href="#m95d66453fd" x="120.7" y="222.297789" style="fill: #f8d941; stroke: #000000; stroke-width: 5"/>
      </g>
     </g>
     <g id="text_4">
      <!-- 100 -->
      <g transform="translate(7.2 243.129039) scale(0.6 -0.6)">
       <use xlink:href="#TimesNewRomanPSMT-31"/>
       <use xlink:href="#TimesNewRomanPSMT-30" x="50"/>
       <use xlink:href="#TimesNewRomanPSMT-30" x="100"/>
      </g>
     </g>
    </g>
    <g id="ytick_3">
     <g id="line2d_5">
      <g>
       <use xlink:href="#m95d66453fd" x="120.7" y="63.084029" style="fill: #f8d941; stroke: #000000; stroke-width: 5"/>
      </g>
     </g>
     <g id="text_5">
      <!-- 200 -->
      <g transform="translate(7.2 83.915279) scale(0.6 -0.6)">
       <defs>
        <path id="TimesNewRomanPSMT-32" d="M 2934 816 
L 2638 0 
L 138 0 
L 138 116 
Q 1241 1122 1691 1759 
Q 2141 2397 2141 2925 
Q 2141 3328 1894 3587 
Q 1647 3847 1303 3847 
Q 991 3847 742 3664 
Q 494 3481 375 3128 
L 259 3128 
Q 338 3706 661 4015 
Q 984 4325 1469 4325 
Q 1984 4325 2329 3994 
Q 2675 3663 2675 3213 
Q 2675 2891 2525 2569 
Q 2294 2063 1775 1497 
Q 997 647 803 472 
L 1909 472 
Q 2247 472 2383 497 
Q 2519 522 2628 598 
Q 2738 675 2819 816 
L 2934 816 
z
" transform="scale(0.015625)"/>
       </defs>
       <use xlink:href="#TimesNewRomanPSMT-32"/>
       <use xlink:href="#TimesNewRomanPSMT-30" x="50"/>
       <use xlink:href="#TimesNewRomanPSMT-30" x="100"/>
      </g>
     </g>
    </g>
   </g>
   <g id="line2d_6">
    <path d="M 142.3 378.327273 
L 228.7 376.735135 
L 315.1 375.142998 
L 401.5 375.142998 
L 487.9 375.142998 
L 574.3 375.142998 
" clip-path="url(#p209f894d88)" style="fill: none; stroke-dasharray: 25.9,11.2; stroke-dashoffset: 0; stroke: #fff5e4; stroke-width: 7"/>
   </g>
   <g id="line2d_7">
    <path d="M 142.3 378.327273 
L 228.7 376.735135 
L 315.1 375.142998 
L 401.5 375.142998 
L 487.9 375.142998 
L 574.3 375.142998 
" clip-path="url(#p209f894d88)" style="fill: none; stroke: #fff5e4; stroke-width: 7; stroke-linecap: square"/>
   </g>
   <g id="line2d_8">
    <path d="M 142.3 378.327273 
L 158.3 376.735135 
L 174.3 376.735135 
L 190.3 376.735135 
L 206.3 373.55086 
L 222.3 371.958722 
L 238.3 370.366585 
L 254.3 370.366585 
L 270.3 370.366585 
L 286.3 367.18231 
L 302.3 363.998034 
L 318.3 363.998034 
L 334.3 360.813759 
L 350.3 357.629484 
L 366.3 356.037346 
L 382.3 354.445209 
L 398.3 351.260934 
L 414.3 348.076658 
L 430.3 343.300246 
L 446.3 343.300246 
L 462.3 343.300246 
L 478.3 343.300246 
L 494.3 343.300246 
L 510.3 343.300246 
L 526.3 343.300246 
L 542.3 343.300246 
L 558.3 343.300246 
L 574.3 343.300246 
" clip-path="url(#p209f894d88)" style="fill: none; stroke-dasharray: 25.9,11.2; stroke-dashoffset: 0; stroke: #384b70; stroke-width: 7"/>
   </g>
   <g id="line2d_9">
    <path d="M 142.3 378.327273 
L 158.3 376.735135 
L 174.3 373.55086 
L 190.3 371.958722 
L 206.3 370.366585 
L 222.3 367.18231 
L 238.3 363.998034 
L 254.3 360.813759 
L 270.3 357.629484 
L 286.3 356.037346 
L 302.3 354.445209 
L 318.3 351.260934 
L 334.3 348.076658 
L 350.3 343.300246 
L 366.3 343.300246 
L 382.3 343.300246 
L 398.3 343.300246 
L 414.3 343.300246 
L 430.3 343.300246 
L 446.3 343.300246 
L 462.3 343.300246 
L 478.3 343.300246 
L 494.3 343.300246 
L 510.3 343.300246 
L 526.3 343.300246 
L 542.3 343.300246 
L 558.3 343.300246 
L 574.3 343.300246 
" clip-path="url(#p209f894d88)" style="fill: none; stroke: #384b70; stroke-width: 7; stroke-linecap: square"/>
   </g>
   <g id="line2d_10">
    <path d="M 142.3 378.327273 
L 152.118182 376.735135 
L 161.936364 376.735135 
L 171.754545 376.735135 
L 181.572727 376.735135 
L 191.390909 376.735135 
L 201.209091 373.55086 
L 211.027273 371.958722 
L 220.845455 370.366585 
L 230.663636 370.366585 
L 240.481818 370.366585 
L 250.3 367.18231 
L 260.118182 363.998034 
L 269.936364 357.629484 
L 279.754545 351.260934 
L 289.572727 351.260934 
L 299.390909 348.076658 
L 309.209091 344.892383 
L 319.027273 343.300246 
L 328.845455 341.708108 
L 338.663636 338.523833 
L 348.481818 332.155283 
L 358.3 322.602457 
L 368.118182 313.049631 
L 377.936364 305.088943 
L 387.754545 305.088943 
L 397.572727 305.088943 
L 407.390909 305.088943 
L 417.209091 305.088943 
L 427.027273 300.312531 
L 436.845455 298.720393 
L 446.663636 298.720393 
L 456.481818 298.720393 
L 466.3 295.536118 
L 476.118182 295.536118 
L 485.936364 295.536118 
L 495.754545 295.536118 
L 505.572727 295.536118 
L 515.390909 295.536118 
L 525.209091 295.536118 
L 535.027273 295.536118 
L 544.845455 295.536118 
L 554.663636 295.536118 
L 564.481818 295.536118 
L 574.3 295.536118 
" clip-path="url(#p209f894d88)" style="fill: none; stroke-dasharray: 25.9,11.2; stroke-dashoffset: 0; stroke: #b8001f; stroke-width: 7"/>
   </g>
   <g id="line2d_11">
    <path d="M 142.3 378.327273 
L 152.118182 376.735135 
L 161.936364 373.55086 
L 171.754545 371.958722 
L 181.572727 370.366585 
L 191.390909 367.18231 
L 201.209091 363.998034 
L 211.027273 357.629484 
L 220.845455 351.260934 
L 230.663636 348.076658 
L 240.481818 344.892383 
L 250.3 343.300246 
L 260.118182 341.708108 
L 269.936364 338.523833 
L 279.754545 332.155283 
L 289.572727 322.602457 
L 299.390909 313.049631 
L 309.209091 305.088943 
L 319.027273 300.312531 
L 328.845455 298.720393 
L 338.663636 295.536118 
L 348.481818 295.536118 
L 358.3 295.536118 
L 368.118182 295.536118 
L 377.936364 295.536118 
L 387.754545 295.536118 
L 397.572727 295.536118 
L 407.390909 295.536118 
L 417.209091 295.536118 
L 427.027273 295.536118 
L 436.845455 295.536118 
L 446.663636 295.536118 
L 456.481818 295.536118 
L 466.3 295.536118 
L 476.118182 295.536118 
L 485.936364 295.536118 
L 495.754545 295.536118 
L 505.572727 295.536118 
L 515.390909 295.536118 
L 525.209091 295.536118 
L 535.027273 295.536118 
L 544.845455 295.536118 
L 554.663636 295.536118 
L 564.481818 295.536118 
L 574.3 295.536118 
" clip-path="url(#p209f894d88)" style="fill: none; stroke: #b8001f; stroke-width: 7; stroke-linecap: square"/>
   </g>
   <g id="line2d_12">
    <path d="M 142.3 378.327273 
L 147.91039 376.735135 
L 153.520779 375.142998 
L 159.131169 375.142998 
L 164.741558 375.142998 
L 170.351948 375.142998 
L 175.962338 375.142998 
L 181.572727 375.142998 
L 187.183117 375.142998 
L 192.793506 370.366585 
L 198.403896 368.774447 
L 204.014286 367.18231 
L 209.624675 365.590172 
L 215.235065 365.590172 
L 220.845455 365.590172 
L 226.455844 365.590172 
L 232.066234 362.405897 
L 237.676623 359.221622 
L 243.287013 356.037346 
L 248.897403 349.668796 
L 254.507792 343.300246 
L 260.118182 336.931695 
L 265.728571 336.931695 
L 271.338961 330.563145 
L 276.949351 324.194595 
L 282.55974 317.826044 
L 288.17013 314.641769 
L 293.780519 311.457494 
L 299.390909 308.273219 
L 305.001299 301.904668 
L 310.611688 292.351843 
L 316.222078 279.614742 
L 321.832468 260.509091 
L 327.442857 241.40344 
L 333.053247 222.297789 
L 338.663636 198.415725 
L 344.274026 193.639312 
L 349.884416 188.862899 
L 355.494805 184.086486 
L 361.105195 182.494349 
L 366.715584 180.902211 
L 372.325974 179.310074 
L 377.936364 164.980835 
L 383.546753 149.059459 
L 389.157143 131.545946 
L 394.767532 115.62457 
L 400.377922 98.111057 
L 405.988312 85.373956 
L 411.598701 47.162654 
L 417.209091 43.978378 
L 422.819481 43.978378 
L 428.42987 43.978378 
L 434.04026 42.386241 
L 439.650649 40.794103 
L 445.261039 40.794103 
L 450.871429 34.425553 
L 456.481818 32.833415 
L 462.092208 32.833415 
L 467.702597 31.241278 
L 473.312987 31.241278 
L 478.923377 31.241278 
L 484.533766 28.057002 
L 490.144156 28.057002 
L 495.754545 26.464865 
L 501.364935 24.872727 
L 506.975325 24.872727 
L 512.585714 24.872727 
L 518.196104 24.872727 
L 523.806494 24.872727 
L 529.416883 24.872727 
L 535.027273 24.872727 
L 540.637662 24.872727 
L 546.248052 24.872727 
L 551.858442 24.872727 
L 557.468831 24.872727 
L 563.079221 24.872727 
L 568.68961 24.872727 
L 574.3 24.872727 
" clip-path="url(#p209f894d88)" style="fill: none; stroke-dasharray: 25.9,11.2; stroke-dashoffset: 0; stroke: #6a9c89; stroke-width: 7"/>
   </g>
   <g id="line2d_13">
    <path d="M 142.3 378.327273 
L 147.91039 376.735135 
L 153.520779 375.142998 
L 159.131169 370.366585 
L 164.741558 368.774447 
L 170.351948 367.18231 
L 175.962338 365.590172 
L 181.572727 362.405897 
L 187.183117 359.221622 
L 192.793506 356.037346 
L 198.403896 349.668796 
L 204.014286 343.300246 
L 209.624675 336.931695 
L 215.235065 330.563145 
L 220.845455 324.194595 
L 226.455844 317.826044 
L 232.066234 314.641769 
L 237.676623 311.457494 
L 243.287013 308.273219 
L 248.897403 301.904668 
L 254.507792 292.351843 
L 260.118182 279.614742 
L 265.728571 260.509091 
L 271.338961 241.40344 
L 276.949351 222.297789 
L 282.55974 198.415725 
L 288.17013 193.639312 
L 293.780519 188.862899 
L 299.390909 184.086486 
L 305.001299 182.494349 
L 310.611688 180.902211 
L 316.222078 179.310074 
L 321.832468 164.980835 
L 327.442857 149.059459 
L 333.053247 131.545946 
L 338.663636 115.62457 
L 344.274026 98.111057 
L 349.884416 85.373956 
L 355.494805 47.162654 
L 361.105195 43.978378 
L 366.715584 42.386241 
L 372.325974 40.794103 
L 377.936364 34.425553 
L 383.546753 32.833415 
L 389.157143 31.241278 
L 394.767532 28.057002 
L 400.377922 26.464865 
L 405.988312 24.872727 
L 411.598701 24.872727 
L 417.209091 24.872727 
L 422.819481 24.872727 
L 428.42987 24.872727 
L 434.04026 24.872727 
L 439.650649 24.872727 
L 445.261039 24.872727 
L 450.871429 24.872727 
L 456.481818 24.872727 
L 462.092208 24.872727 
L 467.702597 24.872727 
L 473.312987 24.872727 
L 478.923377 24.872727 
L 484.533766 24.872727 
L 490.144156 24.872727 
L 495.754545 24.872727 
L 501.364935 24.872727 
L 506.975325 24.872727 
L 512.585714 24.872727 
L 518.196104 24.872727 
L 523.806494 24.872727 
L 529.416883 24.872727 
L 535.027273 24.872727 
L 540.637662 24.872727 
L 546.248052 24.872727 
L 551.858442 24.872727 
L 557.468831 24.872727 
L 563.079221 24.872727 
L 568.68961 24.872727 
L 574.3 24.872727 
" clip-path="url(#p209f894d88)" style="fill: none; stroke: #6a9c89; stroke-width: 7; stroke-linecap: square"/>
   </g>
   <g id="patch_3">
    <path d="M 120.7 396 
L 120.7 7.2 
" style="fill: none; stroke: #000000; stroke-width: 5; stroke-linejoin: miter; stroke-linecap: square"/>
   </g>
   <g id="patch_4">
    <path d="M 595.9 396 
L 595.9 7.2 
" style="fill: none; stroke: #000000; stroke-width: 5; stroke-linejoin: miter; stroke-linecap: square"/>
   </g>
   <g id="patch_5">
    <path d="M 120.7 396 
L 595.9 396 
" style="fill: none; stroke: #000000; stroke-width: 5; stroke-linejoin: miter; stroke-linecap: square"/>
   </g>
   <g id="patch_6">
    <path d="M 120.7 7.2 
L 595.9 7.2 
" style="fill: none; stroke: #000000; stroke-width: 5; stroke-linejoin: miter; stroke-linecap: square"/>
   </g>
  </g>
  <g id="axes_2">
   <g id="patch_7">
    <path d="M 120.7 957.6 
L 595.9 957.6 
L 595.9 568.8 
L 120.7 568.8 
z
" style="fill: #ffffff"/>
   </g>
   <g id="matplotlib.axis_3">
    <g id="xtick_3">
     <g id="line2d_14">
      <g>
       <use xlink:href="#m033ac2ed13" x="142.3" y="957.6" style="fill: #f8d941; stroke: #000000; stroke-width: 5"/>
      </g>
     </g>
     <g id="text_6">
      <!-- 0 -->
      <g transform="translate(127.3 1022.7625) scale(0.6 -0.6)">
       <use xlink:href="#TimesNewRomanPSMT-30"/>
      </g>
     </g>
    </g>
    <g id="xtick_4">
     <g id="line2d_15">
      <g>
       <use xlink:href="#m033ac2ed13" x="574.3" y="957.6" style="fill: #f8d941; stroke: #000000; stroke-width: 5"/>
      </g>
     </g>
     <g id="text_7">
      <!-- 100 -->
      <g transform="translate(529.3 1022.7625) scale(0.6 -0.6)">
       <use xlink:href="#TimesNewRomanPSMT-31"/>
       <use xlink:href="#TimesNewRomanPSMT-30" x="50"/>
       <use xlink:href="#TimesNewRomanPSMT-30" x="100"/>
      </g>
     </g>
    </g>
   </g>
   <g id="matplotlib.axis_4">
    <g id="ytick_4">
     <g id="line2d_16">
      <g>
       <use xlink:href="#m95d66453fd" x="120.7" y="939.927273" style="fill: #f8d941; stroke: #000000; stroke-width: 5"/>
      </g>
     </g>
     <g id="text_8">
      <!-- 2 -->
      <g transform="translate(67.2 960.758523) scale(0.6 -0.6)">
       <use xlink:href="#TimesNewRomanPSMT-32"/>
      </g>
     </g>
    </g>
    <g id="ytick_5">
     <g id="line2d_17">
      <g>
       <use xlink:href="#m95d66453fd" x="120.7" y="798.545455" style="fill: #f8d941; stroke: #000000; stroke-width: 5"/>
      </g>
     </g>
     <g id="text_9">
      <!-- 4 -->
      <g transform="translate(67.2 819.376705) scale(0.6 -0.6)">
       <defs>
        <path id="TimesNewRomanPSMT-34" d="M 2978 1563 
L 2978 1119 
L 2409 1119 
L 2409 0 
L 1894 0 
L 1894 1119 
L 100 1119 
L 100 1519 
L 2066 4325 
L 2409 4325 
L 2409 1563 
L 2978 1563 
z
M 1894 1563 
L 1894 3666 
L 406 1563 
L 1894 1563 
z
" transform="scale(0.015625)"/>
       </defs>
       <use xlink:href="#TimesNewRomanPSMT-34"/>
      </g>
     </g>
    </g>
    <g id="ytick_6">
     <g id="line2d_18">
      <g>
       <use xlink:href="#m95d66453fd" x="120.7" y="657.163636" style="fill: #f8d941; stroke: #000000; stroke-width: 5"/>
      </g>
     </g>
     <g id="text_10">
      <!-- 6 -->
      <g transform="translate(67.2 677.994886) scale(0.6 -0.6)">
       <defs>
        <path id="TimesNewRomanPSMT-36" d="M 2869 4325 
L 2869 4209 
Q 2456 4169 2195 4045 
Q 1934 3922 1679 3669 
Q 1425 3416 1258 3105 
Q 1091 2794 978 2366 
Q 1428 2675 1881 2675 
Q 2316 2675 2634 2325 
Q 2953 1975 2953 1425 
Q 2953 894 2631 456 
Q 2244 -75 1606 -75 
Q 1172 -75 869 213 
Q 275 772 275 1663 
Q 275 2231 503 2743 
Q 731 3256 1154 3653 
Q 1578 4050 1965 4187 
Q 2353 4325 2688 4325 
L 2869 4325 
z
M 925 2138 
Q 869 1716 869 1456 
Q 869 1156 980 804 
Q 1091 453 1309 247 
Q 1469 100 1697 100 
Q 1969 100 2183 356 
Q 2397 613 2397 1088 
Q 2397 1622 2184 2012 
Q 1972 2403 1581 2403 
Q 1463 2403 1327 2353 
Q 1191 2303 925 2138 
z
" transform="scale(0.015625)"/>
       </defs>
       <use xlink:href="#TimesNewRomanPSMT-36"/>
      </g>
     </g>
    </g>
   </g>
   <g id="line2d_19">
    <path d="M 142.3 939.927273 
L 228.7 869.236364 
L 315.1 798.545455 
L 401.5 798.545455 
L 487.9 798.545455 
L 574.3 798.545455 
" clip-path="url(#p57dd54e863)" style="fill: none; stroke-dasharray: 25.9,11.2; stroke-dashoffset: 0; stroke: #fff5e4; stroke-width: 7"/>
   </g>
   <g id="line2d_20">
    <path d="M 142.3 939.927273 
L 228.7 869.236364 
L 315.1 798.545455 
L 401.5 798.545455 
L 487.9 798.545455 
L 574.3 798.545455 
" clip-path="url(#p57dd54e863)" style="fill: none; stroke: #fff5e4; stroke-width: 7; stroke-linecap: square"/>
   </g>
   <g id="line2d_21">
    <path d="M 142.3 939.927273 
L 171.1 939.927273 
L 199.9 939.927273 
L 228.7 869.236364 
L 257.5 869.236364 
L 286.3 798.545455 
L 315.1 798.545455 
L 343.9 727.854545 
L 372.7 727.854545 
L 401.5 727.854545 
L 430.3 727.854545 
L 459.1 727.854545 
L 487.9 727.854545 
L 516.7 727.854545 
L 545.5 727.854545 
L 574.3 727.854545 
" clip-path="url(#p57dd54e863)" style="fill: none; stroke-dasharray: 25.9,11.2; stroke-dashoffset: 0; stroke: #384b70; stroke-width: 7"/>
   </g>
   <g id="line2d_22">
    <path d="M 142.3 939.927273 
L 171.1 869.236364 
L 199.9 798.545455 
L 228.7 727.854545 
L 257.5 727.854545 
L 286.3 727.854545 
L 315.1 727.854545 
L 343.9 727.854545 
L 372.7 727.854545 
L 401.5 727.854545 
L 430.3 727.854545 
L 459.1 727.854545 
L 487.9 727.854545 
L 516.7 727.854545 
L 545.5 727.854545 
L 574.3 727.854545 
" clip-path="url(#p57dd54e863)" style="fill: none; stroke: #384b70; stroke-width: 7; stroke-linecap: square"/>
   </g>
   <g id="line2d_23">
    <path d="M 142.3 939.927273 
L 165.036842 939.927273 
L 187.773684 939.927273 
L 210.510526 869.236364 
L 233.247368 869.236364 
L 255.984211 798.545455 
L 278.721053 798.545455 
L 301.457895 727.854545 
L 324.194737 727.854545 
L 346.931579 657.163636 
L 369.668421 657.163636 
L 392.405263 657.163636 
L 415.142105 657.163636 
L 437.878947 657.163636 
L 460.615789 657.163636 
L 483.352632 657.163636 
L 506.089474 657.163636 
L 528.826316 657.163636 
L 551.563158 657.163636 
L 574.3 657.163636 
" clip-path="url(#p57dd54e863)" style="fill: none; stroke-dasharray: 25.9,11.2; stroke-dashoffset: 0; stroke: #b8001f; stroke-width: 7"/>
   </g>
   <g id="line2d_24">
    <path d="M 142.3 939.927273 
L 165.036842 869.236364 
L 187.773684 798.545455 
L 210.510526 727.854545 
L 233.247368 657.163636 
L 255.984211 657.163636 
L 278.721053 657.163636 
L 301.457895 657.163636 
L 324.194737 657.163636 
L 346.931579 657.163636 
L 369.668421 657.163636 
L 392.405263 657.163636 
L 415.142105 657.163636 
L 437.878947 657.163636 
L 460.615789 657.163636 
L 483.352632 657.163636 
L 506.089474 657.163636 
L 528.826316 657.163636 
L 551.563158 657.163636 
L 574.3 657.163636 
" clip-path="url(#p57dd54e863)" style="fill: none; stroke: #b8001f; stroke-width: 7; stroke-linecap: square"/>
   </g>
   <g id="line2d_25">
    <path d="M 142.3 939.927273 
L 161.082609 939.927273 
L 179.865217 939.927273 
L 198.647826 869.236364 
L 217.430435 869.236364 
L 236.213043 798.545455 
L 254.995652 798.545455 
L 273.778261 727.854545 
L 292.56087 727.854545 
L 311.343478 657.163636 
L 330.126087 657.163636 
L 348.908696 586.472727 
L 367.691304 586.472727 
L 386.473913 586.472727 
L 405.256522 586.472727 
L 424.03913 586.472727 
L 442.821739 586.472727 
L 461.604348 586.472727 
L 480.386957 586.472727 
L 499.169565 586.472727 
L 517.952174 586.472727 
L 536.734783 586.472727 
L 555.517391 586.472727 
L 574.3 586.472727 
" clip-path="url(#p57dd54e863)" style="fill: none; stroke-dasharray: 25.9,11.2; stroke-dashoffset: 0; stroke: #6a9c89; stroke-width: 7"/>
   </g>
   <g id="line2d_26">
    <path d="M 142.3 939.927273 
L 161.082609 869.236364 
L 179.865217 798.545455 
L 198.647826 727.854545 
L 217.430435 657.163636 
L 236.213043 586.472727 
L 254.995652 586.472727 
L 273.778261 586.472727 
L 292.56087 586.472727 
L 311.343478 586.472727 
L 330.126087 586.472727 
L 348.908696 586.472727 
L 367.691304 586.472727 
L 386.473913 586.472727 
L 405.256522 586.472727 
L 424.03913 586.472727 
L 442.821739 586.472727 
L 461.604348 586.472727 
L 480.386957 586.472727 
L 499.169565 586.472727 
L 517.952174 586.472727 
L 536.734783 586.472727 
L 555.517391 586.472727 
L 574.3 586.472727 
" clip-path="url(#p57dd54e863)" style="fill: none; stroke: #6a9c89; stroke-width: 7; stroke-linecap: square"/>
   </g>
   <g id="patch_8">
    <path d="M 120.7 957.6 
L 120.7 568.8 
" style="fill: none; stroke: #000000; stroke-width: 5; stroke-linejoin: miter; stroke-linecap: square"/>
   </g>
   <g id="patch_9">
    <path d="M 595.9 957.6 
L 595.9 568.8 
" style="fill: none; stroke: #000000; stroke-width: 5; stroke-linejoin: miter; stroke-linecap: square"/>
   </g>
   <g id="patch_10">
    <path d="M 120.7 957.6 
L 595.9 957.6 
" style="fill: none; stroke: #000000; stroke-width: 5; stroke-linejoin: miter; stroke-linecap: square"/>
   </g>
   <g id="patch_11">
    <path d="M 120.7 568.8 
L 595.9 568.8 
" style="fill: none; stroke: #000000; stroke-width: 5; stroke-linejoin: miter; stroke-linecap: square"/>
   </g>
  </g>
  <g id="axes_3">
   <g id="patch_12">
    <path d="M 754.3 396 
L 1229.5 396 
L 1229.5 7.2 
L 754.3 7.2 
z
" style="fill: #ffffff"/>
   </g>
   <g id="matplotlib.axis_5">
    <g id="xtick_5">
     <g id="line2d_27">
      <g>
       <use xlink:href="#m033ac2ed13" x="775.9" y="396" style="fill: #f8d941; stroke: #000000; stroke-width: 5"/>
      </g>
     </g>
     <g id="text_11">
      <!-- 0 -->
      <g transform="translate(760.9 461.1625) scale(0.6 -0.6)">
       <use xlink:href="#TimesNewRomanPSMT-30"/>
      </g>
     </g>
    </g>
    <g id="xtick_6">
     <g id="line2d_28">
      <g>
       <use xlink:href="#m033ac2ed13" x="1207.9" y="396" style="fill: #f8d941; stroke: #000000; stroke-width: 5"/>
      </g>
     </g>
     <g id="text_12">
      <!-- 100 -->
      <g transform="translate(1162.9 461.1625) scale(0.6 -0.6)">
       <use xlink:href="#TimesNewRomanPSMT-31"/>
       <use xlink:href="#TimesNewRomanPSMT-30" x="50"/>
       <use xlink:href="#TimesNewRomanPSMT-30" x="100"/>
      </g>
     </g>
    </g>
   </g>
   <g id="matplotlib.axis_6">
    <g id="ytick_7">
     <g id="line2d_29">
      <g>
       <use xlink:href="#m95d66453fd" x="754.3" y="378.525954" style="fill: #f8d941; stroke: #000000; stroke-width: 5"/>
      </g>
     </g>
     <g id="text_13">
      <!-- 0 -->
      <g transform="translate(700.8 399.357204) scale(0.6 -0.6)">
       <use xlink:href="#TimesNewRomanPSMT-30"/>
      </g>
     </g>
    </g>
    <g id="ytick_8">
     <g id="line2d_30">
      <g>
       <use xlink:href="#m95d66453fd" x="754.3" y="179.844366" style="fill: #f8d941; stroke: #000000; stroke-width: 5"/>
      </g>
     </g>
     <g id="text_14">
      <!-- 1000 -->
      <g transform="translate(610.8 200.675616) scale(0.6 -0.6)">
       <use xlink:href="#TimesNewRomanPSMT-31"/>
       <use xlink:href="#TimesNewRomanPSMT-30" x="50"/>
       <use xlink:href="#TimesNewRomanPSMT-30" x="100"/>
       <use xlink:href="#TimesNewRomanPSMT-30" x="150"/>
      </g>
     </g>
    </g>
   </g>
   <g id="line2d_31">
    <path d="M 775.9 378.327273 
L 798.636842 378.327273 
L 821.373684 378.327273 
L 844.110526 378.128591 
L 866.847368 377.92991 
L 889.584211 377.92991 
L 912.321053 377.532546 
L 935.057895 376.73782 
L 957.794737 376.539138 
L 980.531579 376.539138 
L 1003.268421 375.54573 
L 1026.005263 375.54573 
L 1048.742105 375.54573 
L 1071.478947 375.54573 
L 1094.215789 375.54573 
L 1116.952632 375.54573 
L 1139.689474 375.54573 
L 1162.426316 375.54573 
L 1185.163158 375.54573 
L 1207.9 375.54573 
" clip-path="url(#pb7c5327547)" style="fill: none; stroke-dasharray: 25.9,11.2; stroke-dashoffset: 0; stroke: #fff5e4; stroke-width: 7"/>
   </g>
   <g id="line2d_32">
    <path d="M 775.9 378.327273 
L 798.636842 378.128591 
L 821.373684 377.92991 
L 844.110526 377.532546 
L 866.847368 376.73782 
L 889.584211 376.539138 
L 912.321053 375.54573 
L 935.057895 375.54573 
L 957.794737 375.54573 
L 980.531579 375.54573 
L 1003.268421 375.54573 
L 1026.005263 375.54573 
L 1048.742105 375.54573 
L 1071.478947 375.54573 
L 1094.215789 375.54573 
L 1116.952632 375.54573 
L 1139.689474 375.54573 
L 1162.426316 375.54573 
L 1185.163158 375.54573 
L 1207.9 375.54573 
" clip-path="url(#pb7c5327547)" style="fill: none; stroke: #fff5e4; stroke-width: 7; stroke-linecap: square"/>
   </g>
   <g id="line2d_33">
    <path d="M 775.9 378.327273 
L 788.605882 378.327273 
L 801.311765 378.128591 
L 814.017647 377.92991 
L 826.723529 377.532546 
L 839.429412 377.135183 
L 852.135294 376.340457 
L 864.841176 375.54573 
L 877.547059 373.558915 
L 890.252941 372.366825 
L 902.958824 372.366825 
L 915.664706 371.77078 
L 928.370588 371.77078 
L 941.076471 371.373417 
L 953.782353 370.777372 
L 966.488235 370.578691 
L 979.194118 369.982646 
L 991.9 369.585283 
L 1004.605882 369.386601 
L 1017.311765 369.18792 
L 1030.017647 369.18792 
L 1042.723529 368.989238 
L 1055.429412 368.989238 
L 1068.135294 368.989238 
L 1080.841176 368.989238 
L 1093.547059 368.989238 
L 1106.252941 368.989238 
L 1118.958824 368.989238 
L 1131.664706 368.989238 
L 1144.370588 368.989238 
L 1157.076471 368.989238 
L 1169.782353 368.989238 
L 1182.488235 368.989238 
L 1195.194118 368.989238 
L 1207.9 368.989238 
" clip-path="url(#pb7c5327547)" style="fill: none; stroke-dasharray: 25.9,11.2; stroke-dashoffset: 0; stroke: #384b70; stroke-width: 7"/>
   </g>
   <g id="line2d_34">
    <path d="M 775.9 378.327273 
L 788.605882 378.128591 
L 801.311765 377.92991 
L 814.017647 377.532546 
L 826.723529 377.135183 
L 839.429412 376.340457 
L 852.135294 375.54573 
L 864.841176 373.558915 
L 877.547059 372.366825 
L 890.252941 371.77078 
L 902.958824 371.373417 
L 915.664706 370.777372 
L 928.370588 370.578691 
L 941.076471 369.982646 
L 953.782353 369.585283 
L 966.488235 369.386601 
L 979.194118 369.18792 
L 991.9 368.989238 
L 1004.605882 368.989238 
L 1017.311765 368.989238 
L 1030.017647 368.989238 
L 1042.723529 368.989238 
L 1055.429412 368.989238 
L 1068.135294 368.989238 
L 1080.841176 368.989238 
L 1093.547059 368.989238 
L 1106.252941 368.989238 
L 1118.958824 368.989238 
L 1131.664706 368.989238 
L 1144.370588 368.989238 
L 1157.076471 368.989238 
L 1169.782353 368.989238 
L 1182.488235 368.989238 
L 1195.194118 368.989238 
L 1207.9 368.989238 
" clip-path="url(#pb7c5327547)" style="fill: none; stroke: #384b70; stroke-width: 7; stroke-linecap: square"/>
   </g>
   <g id="line2d_35">
    <path d="M 775.9 378.128591 
L 786.976923 377.92991 
L 798.053846 377.92991 
L 809.130769 377.333865 
L 820.207692 376.73782 
L 831.284615 376.141775 
L 842.361538 374.949686 
L 853.438462 371.373417 
L 864.515385 364.22088 
L 875.592308 349.915806 
L 886.669231 345.147447 
L 897.746154 345.147447 
L 908.823077 330.842373 
L 919.9 311.768941 
L 930.976923 302.232224 
L 942.053846 302.232224 
L 953.130769 292.695508 
L 964.207692 292.695508 
L 975.284615 292.695508 
L 986.361538 292.695508 
L 997.438462 292.099463 
L 1008.515385 292.099463 
L 1019.592308 292.099463 
L 1030.669231 291.503419 
L 1041.746154 291.503419 
L 1052.823077 291.503419 
L 1063.9 291.503419 
L 1074.976923 290.311329 
L 1086.053846 287.92715 
L 1097.130769 283.158792 
L 1108.207692 283.158792 
L 1119.284615 283.158792 
L 1130.361538 283.158792 
L 1141.438462 283.158792 
L 1152.515385 283.158792 
L 1163.592308 283.158792 
L 1174.669231 283.158792 
L 1185.746154 283.158792 
L 1196.823077 283.158792 
L 1207.9 283.158792 
" clip-path="url(#pb7c5327547)" style="fill: none; stroke-dasharray: 25.9,11.2; stroke-dashoffset: 0; stroke: #b8001f; stroke-width: 7"/>
   </g>
   <g id="line2d_36">
    <path d="M 775.9 378.128591 
L 786.976923 377.92991 
L 798.053846 377.333865 
L 809.130769 376.73782 
L 820.207692 376.141775 
L 831.284615 374.949686 
L 842.361538 371.373417 
L 853.438462 364.22088 
L 864.515385 349.915806 
L 875.592308 345.147447 
L 886.669231 330.842373 
L 897.746154 311.768941 
L 908.823077 302.232224 
L 919.9 292.695508 
L 930.976923 292.099463 
L 942.053846 291.503419 
L 953.130769 290.311329 
L 964.207692 287.92715 
L 975.284615 283.158792 
L 986.361538 283.158792 
L 997.438462 283.158792 
L 1008.515385 283.158792 
L 1019.592308 283.158792 
L 1030.669231 283.158792 
L 1041.746154 283.158792 
L 1052.823077 283.158792 
L 1063.9 283.158792 
L 1074.976923 283.158792 
L 1086.053846 283.158792 
L 1097.130769 283.158792 
L 1108.207692 283.158792 
L 1119.284615 283.158792 
L 1130.361538 283.158792 
L 1141.438462 283.158792 
L 1152.515385 283.158792 
L 1163.592308 283.158792 
L 1174.669231 283.158792 
L 1185.746154 283.158792 
L 1196.823077 283.158792 
L 1207.9 283.158792 
" clip-path="url(#pb7c5327547)" style="fill: none; stroke: #b8001f; stroke-width: 7; stroke-linecap: square"/>
   </g>
   <g id="line2d_37">
    <path d="M 775.9 378.327273 
L 781.51039 378.327273 
L 787.120779 378.327273 
L 792.731169 378.327273 
L 798.341558 378.327273 
L 803.951948 378.128591 
L 809.562338 377.92991 
L 815.172727 377.731228 
L 820.783117 377.532546 
L 826.393506 377.532546 
L 832.003896 376.73782 
L 837.614286 375.943094 
L 843.224675 373.360233 
L 848.835065 370.181328 
L 854.445455 367.002422 
L 860.055844 363.823517 
L 865.666234 354.286801 
L 871.276623 344.750084 
L 876.887013 320.908294 
L 882.497403 305.013767 
L 888.107792 297.066503 
L 893.718182 297.066503 
L 899.328571 268.655036 
L 904.938961 240.243569 
L 910.549351 240.044887 
L 916.15974 240.044887 
L 921.77013 223.355634 
L 927.380519 215.209689 
L 932.990909 215.011007 
L 938.601299 211.434739 
L 944.211688 211.434739 
L 949.822078 192.758669 
L 955.432468 186.400859 
L 961.042857 185.606132 
L 966.653247 185.606132 
L 972.263636 178.453595 
L 977.874026 168.718197 
L 983.484416 162.161705 
L 989.094805 91.629741 
L 994.705195 83.881159 
L 1000.315584 78.119393 
L 1005.925974 76.52994 
L 1011.536364 72.556308 
L 1017.146753 71.761582 
L 1022.757143 43.350115 
L 1028.367532 33.813399 
L 1033.977922 31.230538 
L 1039.588312 30.038449 
L 1045.198701 29.045041 
L 1050.809091 27.058225 
L 1056.419481 25.468772 
L 1062.02987 25.468772 
L 1067.64026 25.468772 
L 1073.250649 25.468772 
L 1078.861039 25.468772 
L 1084.471429 25.468772 
L 1090.081818 25.468772 
L 1095.692208 25.27009 
L 1101.302597 25.27009 
L 1106.912987 25.27009 
L 1112.523377 25.27009 
L 1118.133766 25.27009 
L 1123.744156 25.27009 
L 1129.354545 25.27009 
L 1134.964935 24.872727 
L 1140.575325 24.872727 
L 1146.185714 24.872727 
L 1151.796104 24.872727 
L 1157.406494 24.872727 
L 1163.016883 24.872727 
L 1168.627273 24.872727 
L 1174.237662 24.872727 
L 1179.848052 24.872727 
L 1185.458442 24.872727 
L 1191.068831 24.872727 
L 1196.679221 24.872727 
L 1202.28961 24.872727 
L 1207.9 24.872727 
" clip-path="url(#pb7c5327547)" style="fill: none; stroke-dasharray: 25.9,11.2; stroke-dashoffset: 0; stroke: #6a9c89; stroke-width: 7"/>
   </g>
   <g id="line2d_38">
    <path d="M 775.9 378.327273 
L 781.51039 378.128591 
L 787.120779 377.92991 
L 792.731169 377.731228 
L 798.341558 377.532546 
L 803.951948 376.73782 
L 809.562338 375.943094 
L 815.172727 373.360233 
L 820.783117 370.181328 
L 826.393506 367.002422 
L 832.003896 363.823517 
L 837.614286 354.286801 
L 843.224675 344.750084 
L 848.835065 320.908294 
L 854.445455 305.013767 
L 860.055844 297.066503 
L 865.666234 268.655036 
L 871.276623 240.243569 
L 876.887013 240.044887 
L 882.497403 223.355634 
L 888.107792 215.209689 
L 893.718182 215.011007 
L 899.328571 211.434739 
L 904.938961 192.758669 
L 910.549351 186.400859 
L 916.15974 185.606132 
L 921.77013 178.453595 
L 927.380519 168.718197 
L 932.990909 162.161705 
L 938.601299 91.629741 
L 944.211688 83.881159 
L 949.822078 78.119393 
L 955.432468 76.52994 
L 961.042857 72.556308 
L 966.653247 71.761582 
L 972.263636 43.350115 
L 977.874026 33.813399 
L 983.484416 31.230538 
L 989.094805 30.038449 
L 994.705195 29.045041 
L 1000.315584 27.058225 
L 1005.925974 25.468772 
L 1011.536364 25.27009 
L 1017.146753 24.872727 
L 1022.757143 24.872727 
L 1028.367532 24.872727 
L 1033.977922 24.872727 
L 1039.588312 24.872727 
L 1045.198701 24.872727 
L 1050.809091 24.872727 
L 1056.419481 24.872727 
L 1062.02987 24.872727 
L 1067.64026 24.872727 
L 1073.250649 24.872727 
L 1078.861039 24.872727 
L 1084.471429 24.872727 
L 1090.081818 24.872727 
L 1095.692208 24.872727 
L 1101.302597 24.872727 
L 1106.912987 24.872727 
L 1112.523377 24.872727 
L 1118.133766 24.872727 
L 1123.744156 24.872727 
L 1129.354545 24.872727 
L 1134.964935 24.872727 
L 1140.575325 24.872727 
L 1146.185714 24.872727 
L 1151.796104 24.872727 
L 1157.406494 24.872727 
L 1163.016883 24.872727 
L 1168.627273 24.872727 
L 1174.237662 24.872727 
L 1179.848052 24.872727 
L 1185.458442 24.872727 
L 1191.068831 24.872727 
L 1196.679221 24.872727 
L 1202.28961 24.872727 
L 1207.9 24.872727 
" clip-path="url(#pb7c5327547)" style="fill: none; stroke: #6a9c89; stroke-width: 7; stroke-linecap: square"/>
   </g>
   <g id="patch_13">
    <path d="M 754.3 396 
L 754.3 7.2 
" style="fill: none; stroke: #000000; stroke-width: 5; stroke-linejoin: miter; stroke-linecap: square"/>
   </g>
   <g id="patch_14">
    <path d="M 1229.5 396 
L 1229.5 7.2 
" style="fill: none; stroke: #000000; stroke-width: 5; stroke-linejoin: miter; stroke-linecap: square"/>
   </g>
   <g id="patch_15">
    <path d="M 754.3 396 
L 1229.5 396 
" style="fill: none; stroke: #000000; stroke-width: 5; stroke-linejoin: miter; stroke-linecap: square"/>
   </g>
   <g id="patch_16">
    <path d="M 754.3 7.2 
L 1229.5 7.2 
" style="fill: none; stroke: #000000; stroke-width: 5; stroke-linejoin: miter; stroke-linecap: square"/>
   </g>
  </g>
  <g id="axes_4">
   <g id="patch_17">
    <path d="M 754.3 957.6 
L 1229.5 957.6 
L 1229.5 568.8 
L 754.3 568.8 
z
" style="fill: #ffffff"/>
   </g>
   <g id="matplotlib.axis_7">
    <g id="xtick_7">
     <g id="line2d_39">
      <g>
       <use xlink:href="#m033ac2ed13" x="775.9" y="957.6" style="fill: #f8d941; stroke: #000000; stroke-width: 5"/>
      </g>
     </g>
     <g id="text_15">
      <!-- 0 -->
      <g transform="translate(760.9 1022.7625) scale(0.6 -0.6)">
       <use xlink:href="#TimesNewRomanPSMT-30"/>
      </g>
     </g>
    </g>
    <g id="xtick_8">
     <g id="line2d_40">
      <g>
       <use xlink:href="#m033ac2ed13" x="1207.9" y="957.6" style="fill: #f8d941; stroke: #000000; stroke-width: 5"/>
      </g>
     </g>
     <g id="text_16">
      <!-- 100 -->
      <g transform="translate(1162.9 1022.7625) scale(0.6 -0.6)">
       <use xlink:href="#TimesNewRomanPSMT-31"/>
       <use xlink:href="#TimesNewRomanPSMT-30" x="50"/>
       <use xlink:href="#TimesNewRomanPSMT-30" x="100"/>
      </g>
     </g>
    </g>
   </g>
   <g id="matplotlib.axis_8">
    <g id="ytick_9">
     <g id="line2d_41">
      <g>
       <use xlink:href="#m95d66453fd" x="754.3" y="945.537662" style="fill: #f8d941; stroke: #000000; stroke-width: 5"/>
      </g>
     </g>
     <g id="text_17">
      <!-- 0 -->
      <g transform="translate(700.8 966.368912) scale(0.6 -0.6)">
       <use xlink:href="#TimesNewRomanPSMT-30"/>
      </g>
     </g>
    </g>
    <g id="ytick_10">
     <g id="line2d_42">
      <g>
       <use xlink:href="#m95d66453fd" x="754.3" y="805.277922" style="fill: #f8d941; stroke: #000000; stroke-width: 5"/>
      </g>
     </g>
     <g id="text_18">
      <!-- 25 -->
      <g transform="translate(670.8 826.109172) scale(0.6 -0.6)">
       <defs>
        <path id="TimesNewRomanPSMT-35" d="M 2778 4238 
L 2534 3706 
L 1259 3706 
L 981 3138 
Q 1809 3016 2294 2522 
Q 2709 2097 2709 1522 
Q 2709 1188 2573 903 
Q 2438 619 2231 419 
Q 2025 219 1772 97 
Q 1413 -75 1034 -75 
Q 653 -75 479 54 
Q 306 184 306 341 
Q 306 428 378 495 
Q 450 563 559 563 
Q 641 563 702 538 
Q 763 513 909 409 
Q 1144 247 1384 247 
Q 1750 247 2026 523 
Q 2303 800 2303 1197 
Q 2303 1581 2056 1914 
Q 1809 2247 1375 2428 
Q 1034 2569 447 2591 
L 1259 4238 
L 2778 4238 
z
" transform="scale(0.015625)"/>
       </defs>
       <use xlink:href="#TimesNewRomanPSMT-32"/>
       <use xlink:href="#TimesNewRomanPSMT-35" x="50"/>
      </g>
     </g>
    </g>
    <g id="ytick_11">
     <g id="line2d_43">
      <g>
       <use xlink:href="#m95d66453fd" x="754.3" y="665.018182" style="fill: #f8d941; stroke: #000000; stroke-width: 5"/>
      </g>
     </g>
     <g id="text_19">
      <!-- 50 -->
      <g transform="translate(670.8 685.849432) scale(0.6 -0.6)">
       <use xlink:href="#TimesNewRomanPSMT-35"/>
       <use xlink:href="#TimesNewRomanPSMT-30" x="50"/>
      </g>
     </g>
    </g>
   </g>
   <g id="line2d_44">
    <path d="M 775.9 934.316883 
L 801.311765 934.316883 
L 826.723529 934.316883 
L 852.135294 923.096104 
L 877.547059 923.096104 
L 902.958824 911.875325 
L 928.370588 911.875325 
L 953.782353 911.875325 
L 979.194118 895.044156 
L 1004.605882 895.044156 
L 1030.017647 895.044156 
L 1055.429412 895.044156 
L 1080.841176 895.044156 
L 1106.252941 895.044156 
L 1131.664706 895.044156 
L 1157.076471 895.044156 
L 1182.488235 895.044156 
L 1207.9 895.044156 
" clip-path="url(#pda74e4647d)" style="fill: none; stroke-dasharray: 25.9,11.2; stroke-dashoffset: 0; stroke: #fff5e4; stroke-width: 7"/>
   </g>
   <g id="line2d_45">
    <path d="M 775.9 934.316883 
L 801.311765 923.096104 
L 826.723529 911.875325 
L 852.135294 895.044156 
L 877.547059 895.044156 
L 902.958824 895.044156 
L 928.370588 895.044156 
L 953.782353 895.044156 
L 979.194118 895.044156 
L 1004.605882 895.044156 
L 1030.017647 895.044156 
L 1055.429412 895.044156 
L 1080.841176 895.044156 
L 1106.252941 895.044156 
L 1131.664706 895.044156 
L 1157.076471 895.044156 
L 1182.488235 895.044156 
L 1207.9 895.044156 
" clip-path="url(#pda74e4647d)" style="fill: none; stroke: #fff5e4; stroke-width: 7; stroke-linecap: square"/>
   </g>
   <g id="line2d_46">
    <path d="M 775.9 939.927273 
L 801.311765 939.927273 
L 826.723529 939.927273 
L 852.135294 939.927273 
L 877.547059 934.316883 
L 902.958824 934.316883 
L 928.370588 934.316883 
L 953.782353 934.316883 
L 979.194118 934.316883 
L 1004.605882 928.706494 
L 1030.017647 928.706494 
L 1055.429412 928.706494 
L 1080.841176 928.706494 
L 1106.252941 928.706494 
L 1131.664706 928.706494 
L 1157.076471 928.706494 
L 1182.488235 928.706494 
L 1207.9 928.706494 
" clip-path="url(#pda74e4647d)" style="fill: none; stroke-dasharray: 25.9,11.2; stroke-dashoffset: 0; stroke: #384b70; stroke-width: 7"/>
   </g>
   <g id="line2d_47">
    <path d="M 775.9 939.927273 
L 801.311765 934.316883 
L 826.723529 928.706494 
L 852.135294 928.706494 
L 877.547059 928.706494 
L 902.958824 928.706494 
L 928.370588 928.706494 
L 953.782353 928.706494 
L 979.194118 928.706494 
L 1004.605882 928.706494 
L 1030.017647 928.706494 
L 1055.429412 928.706494 
L 1080.841176 928.706494 
L 1106.252941 928.706494 
L 1131.664706 928.706494 
L 1157.076471 928.706494 
L 1182.488235 928.706494 
L 1207.9 928.706494 
" clip-path="url(#pda74e4647d)" style="fill: none; stroke: #384b70; stroke-width: 7; stroke-linecap: square"/>
   </g>
   <g id="line2d_48">
    <path d="M 775.9 934.316883 
L 788.242857 934.316883 
L 800.585714 934.316883 
L 812.928571 934.316883 
L 825.271429 923.096104 
L 837.614286 911.875325 
L 849.957143 911.875325 
L 862.3 911.875325 
L 874.642857 878.212987 
L 886.985714 878.212987 
L 899.328571 844.550649 
L 911.671429 810.888312 
L 924.014286 810.888312 
L 936.357143 810.888312 
L 948.7 810.888312 
L 961.042857 766.005195 
L 973.385714 766.005195 
L 985.728571 766.005195 
L 998.071429 676.238961 
L 1010.414286 586.472727 
L 1022.757143 586.472727 
L 1035.1 586.472727 
L 1047.442857 586.472727 
L 1059.785714 586.472727 
L 1072.128571 586.472727 
L 1084.471429 586.472727 
L 1096.814286 586.472727 
L 1109.157143 586.472727 
L 1121.5 586.472727 
L 1133.842857 586.472727 
L 1146.185714 586.472727 
L 1158.528571 586.472727 
L 1170.871429 586.472727 
L 1183.214286 586.472727 
L 1195.557143 586.472727 
L 1207.9 586.472727 
" clip-path="url(#pda74e4647d)" style="fill: none; stroke-dasharray: 25.9,11.2; stroke-dashoffset: 0; stroke: #b8001f; stroke-width: 7"/>
   </g>
   <g id="line2d_49">
    <path d="M 775.9 934.316883 
L 788.242857 923.096104 
L 800.585714 911.875325 
L 812.928571 878.212987 
L 825.271429 844.550649 
L 837.614286 810.888312 
L 849.957143 766.005195 
L 862.3 676.238961 
L 874.642857 586.472727 
L 886.985714 586.472727 
L 899.328571 586.472727 
L 911.671429 586.472727 
L 924.014286 586.472727 
L 936.357143 586.472727 
L 948.7 586.472727 
L 961.042857 586.472727 
L 973.385714 586.472727 
L 985.728571 586.472727 
L 998.071429 586.472727 
L 1010.414286 586.472727 
L 1022.757143 586.472727 
L 1035.1 586.472727 
L 1047.442857 586.472727 
L 1059.785714 586.472727 
L 1072.128571 586.472727 
L 1084.471429 586.472727 
L 1096.814286 586.472727 
L 1109.157143 586.472727 
L 1121.5 586.472727 
L 1133.842857 586.472727 
L 1146.185714 586.472727 
L 1158.528571 586.472727 
L 1170.871429 586.472727 
L 1183.214286 586.472727 
L 1195.557143 586.472727 
L 1207.9 586.472727 
" clip-path="url(#pda74e4647d)" style="fill: none; stroke: #b8001f; stroke-width: 7; stroke-linecap: square"/>
   </g>
   <g id="line2d_50">
    <path d="M 775.9 939.927273 
L 788.242857 939.927273 
L 800.585714 939.927273 
L 812.928571 939.927273 
L 825.271429 939.927273 
L 837.614286 934.316883 
L 849.957143 934.316883 
L 862.3 934.316883 
L 874.642857 934.316883 
L 886.985714 923.096104 
L 899.328571 923.096104 
L 911.671429 923.096104 
L 924.014286 923.096104 
L 936.357143 923.096104 
L 948.7 923.096104 
L 961.042857 911.875325 
L 973.385714 900.654545 
L 985.728571 900.654545 
L 998.071429 900.654545 
L 1010.414286 878.212987 
L 1022.757143 855.771429 
L 1035.1 855.771429 
L 1047.442857 855.771429 
L 1059.785714 855.771429 
L 1072.128571 855.771429 
L 1084.471429 855.771429 
L 1096.814286 855.771429 
L 1109.157143 855.771429 
L 1121.5 855.771429 
L 1133.842857 855.771429 
L 1146.185714 855.771429 
L 1158.528571 855.771429 
L 1170.871429 855.771429 
L 1183.214286 855.771429 
L 1195.557143 855.771429 
L 1207.9 855.771429 
" clip-path="url(#pda74e4647d)" style="fill: none; stroke-dasharray: 25.9,11.2; stroke-dashoffset: 0; stroke: #6a9c89; stroke-width: 7"/>
   </g>
   <g id="line2d_51">
    <path d="M 775.9 939.927273 
L 788.242857 934.316883 
L 800.585714 923.096104 
L 812.928571 911.875325 
L 825.271429 900.654545 
L 837.614286 878.212987 
L 849.957143 855.771429 
L 862.3 855.771429 
L 874.642857 855.771429 
L 886.985714 855.771429 
L 899.328571 855.771429 
L 911.671429 855.771429 
L 924.014286 855.771429 
L 936.357143 855.771429 
L 948.7 855.771429 
L 961.042857 855.771429 
L 973.385714 855.771429 
L 985.728571 855.771429 
L 998.071429 855.771429 
L 1010.414286 855.771429 
L 1022.757143 855.771429 
L 1035.1 855.771429 
L 1047.442857 855.771429 
L 1059.785714 855.771429 
L 1072.128571 855.771429 
L 1084.471429 855.771429 
L 1096.814286 855.771429 
L 1109.157143 855.771429 
L 1121.5 855.771429 
L 1133.842857 855.771429 
L 1146.185714 855.771429 
L 1158.528571 855.771429 
L 1170.871429 855.771429 
L 1183.214286 855.771429 
L 1195.557143 855.771429 
L 1207.9 855.771429 
" clip-path="url(#pda74e4647d)" style="fill: none; stroke: #6a9c89; stroke-width: 7; stroke-linecap: square"/>
   </g>
   <g id="patch_18">
    <path d="M 754.3 957.6 
L 754.3 568.8 
" style="fill: none; stroke: #000000; stroke-width: 5; stroke-linejoin: miter; stroke-linecap: square"/>
   </g>
   <g id="patch_19">
    <path d="M 1229.5 957.6 
L 1229.5 568.8 
" style="fill: none; stroke: #000000; stroke-width: 5; stroke-linejoin: miter; stroke-linecap: square"/>
   </g>
   <g id="patch_20">
    <path d="M 754.3 957.6 
L 1229.5 957.6 
" style="fill: none; stroke: #000000; stroke-width: 5; stroke-linejoin: miter; stroke-linecap: square"/>
   </g>
   <g id="patch_21">
    <path d="M 754.3 568.8 
L 1229.5 568.8 
" style="fill: none; stroke: #000000; stroke-width: 5; stroke-linejoin: miter; stroke-linecap: square"/>
   </g>
  </g>
  <g id="axes_5">
   <g id="patch_22">
    <path d="M 1467.1 957.6 
L 2021.5 957.6 
L 2021.5 7.2 
L 1467.1 7.2 
z
" style="fill: #ffffff"/>
   </g>
   <g id="patch_23">
    <path d="M 1467.1 868.5 
L 1787.512072 868.5 
L 1787.512072 809.1 
L 1467.1 809.1 
z
" clip-path="url(#p954e1c89c6)" style="fill: #fff5e4; stroke: #000000; stroke-width: 4; stroke-linejoin: miter"/>
   </g>
   <g id="patch_24">
    <path d="M 1467.1 868.5 
L 1692.49332 868.5 
L 1692.49332 809.1 
L 1467.1 809.1 
z
" clip-path="url(#p954e1c89c6)" style="fill: #fff5e4; stroke: #000000; stroke-width: 4; stroke-linejoin: miter"/>
   </g>
   <g id="patch_25">
    <path d="M 1467.1 630.9 
L 1900.721707 630.9 
L 1900.721707 571.5 
L 1467.1 571.5 
z
" clip-path="url(#p954e1c89c6)" style="fill: #384b70; stroke: #000000; stroke-width: 4; stroke-linejoin: miter"/>
   </g>
   <g id="patch_26">
    <path d="M 1467.1 630.9 
L 1715.419356 630.9 
L 1715.419356 571.5 
L 1467.1 571.5 
z
" clip-path="url(#p954e1c89c6)" style="fill: #384b70; stroke: #000000; stroke-width: 4; stroke-linejoin: miter"/>
   </g>
   <g id="patch_27">
    <path d="M 1467.1 393.3 
L 1951.585151 393.3 
L 1951.585151 333.9 
L 1467.1 333.9 
z
" clip-path="url(#p954e1c89c6)" style="fill: #b8001f; stroke: #000000; stroke-width: 4; stroke-linejoin: miter"/>
   </g>
   <g id="patch_28">
    <path d="M 1467.1 393.3 
L 1728.954004 393.3 
L 1728.954004 333.9 
L 1467.1 333.9 
z
" clip-path="url(#p954e1c89c6)" style="fill: #b8001f; stroke: #000000; stroke-width: 4; stroke-linejoin: miter"/>
   </g>
   <g id="patch_29">
    <path d="M 1467.1 155.7 
L 1995.1 155.7 
L 1995.1 96.3 
L 1467.1 96.3 
z
" clip-path="url(#p954e1c89c6)" style="fill: #6a9c89; stroke: #000000; stroke-width: 4; stroke-linejoin: miter"/>
   </g>
   <g id="patch_30">
    <path d="M 1467.1 155.7 
L 1771.151509 155.7 
L 1771.151509 96.3 
L 1467.1 96.3 
z
" clip-path="url(#p954e1c89c6)" style="fill: #6a9c89; stroke: #000000; stroke-width: 4; stroke-linejoin: miter"/>
   </g>
   <g id="matplotlib.axis_9">
    <g id="xtick_9">
     <g id="line2d_52">
      <g>
       <use xlink:href="#m033ac2ed13" x="1467.1" y="957.6" style="fill: #f8d941; stroke: #000000; stroke-width: 5"/>
      </g>
     </g>
     <g id="text_20">
      <!-- 0 -->
      <g transform="translate(1452.1 1022.7625) scale(0.6 -0.6)">
       <use xlink:href="#TimesNewRomanPSMT-30"/>
      </g>
     </g>
    </g>
    <g id="xtick_10">
     <g id="line2d_53">
      <g>
       <use xlink:href="#m033ac2ed13" x="1665.976459" y="957.6" style="fill: #f8d941; stroke: #000000; stroke-width: 5"/>
      </g>
     </g>
     <g id="text_21">
      <!-- 25 -->
      <g transform="translate(1635.976459 1022.7625) scale(0.6 -0.6)">
       <use xlink:href="#TimesNewRomanPSMT-32"/>
       <use xlink:href="#TimesNewRomanPSMT-35" x="50"/>
      </g>
     </g>
    </g>
    <g id="xtick_11">
     <g id="line2d_54">
      <g>
       <use xlink:href="#m033ac2ed13" x="1864.852918" y="957.6" style="fill: #f8d941; stroke: #000000; stroke-width: 5"/>
      </g>
     </g>
     <g id="text_22">
      <!-- 50 -->
      <g transform="translate(1834.852918 1022.7625) scale(0.6 -0.6)">
       <use xlink:href="#TimesNewRomanPSMT-35"/>
       <use xlink:href="#TimesNewRomanPSMT-30" x="50"/>
      </g>
     </g>
    </g>
   </g>
   <g id="matplotlib.axis_10"/>
   <g id="patch_31">
    <path d="M 1467.1 957.6 
L 1467.1 7.2 
" style="fill: none; stroke: #000000; stroke-width: 5; stroke-linejoin: miter; stroke-linecap: square"/>
   </g>
   <g id="patch_32">
    <path d="M 2021.5 957.6 
L 2021.5 7.2 
" style="fill: none; stroke: #000000; stroke-width: 5; stroke-linejoin: miter; stroke-linecap: square"/>
   </g>
   <g id="patch_33">
    <path d="M 1467.1 957.6 
L 2021.5 957.6 
" style="fill: none; stroke: #000000; stroke-width: 5; stroke-linejoin: miter; stroke-linecap: square"/>
   </g>
   <g id="patch_34">
    <path d="M 1467.1 7.2 
L 2021.5 7.2 
" style="fill: none; stroke: #000000; stroke-width: 5; stroke-linejoin: miter; stroke-linecap: square"/>
   </g>
  </g>
  <g id="text_23">
   <!-- Figure 17: Solution space analysis on Hamiltonian Pruning. -->
   <g transform="translate(339.415 1077.33) scale(0.48 -0.48)">
    <defs>
     <path id="TimesNewRomanPSMT-46" d="M 1309 4006 
L 1309 2341 
L 2081 2341 
Q 2347 2341 2470 2458 
Q 2594 2575 2634 2922 
L 2750 2922 
L 2750 1488 
L 2634 1488 
Q 2631 1734 2570 1850 
Q 2509 1966 2401 2023 
Q 2294 2081 2081 2081 
L 1309 2081 
L 1309 750 
Q 1309 428 1350 325 
Q 1381 247 1481 191 
Q 1619 116 1769 116 
L 1922 116 
L 1922 0 
L 103 0 
L 103 116 
L 253 116 
Q 516 116 634 269 
Q 709 369 709 750 
L 709 3488 
Q 709 3809 669 3913 
Q 638 3991 541 4047 
Q 406 4122 253 4122 
L 103 4122 
L 103 4238 
L 3256 4238 
L 3297 3306 
L 3188 3306 
Q 3106 3603 2998 3742 
Q 2891 3881 2733 3943 
Q 2575 4006 2244 4006 
L 1309 4006 
z
" transform="scale(0.015625)"/>
     <path id="TimesNewRomanPSMT-69" d="M 928 4444 
Q 1059 4444 1151 4351 
Q 1244 4259 1244 4128 
Q 1244 3997 1151 3903 
Q 1059 3809 928 3809 
Q 797 3809 703 3903 
Q 609 3997 609 4128 
Q 609 4259 701 4351 
Q 794 4444 928 4444 
z
M 1188 2947 
L 1188 647 
Q 1188 378 1227 289 
Q 1266 200 1342 156 
Q 1419 113 1622 113 
L 1622 0 
L 231 0 
L 231 113 
Q 441 113 512 153 
Q 584 194 626 287 
Q 669 381 669 647 
L 669 1750 
Q 669 2216 641 2353 
Q 619 2453 572 2492 
Q 525 2531 444 2531 
Q 356 2531 231 2484 
L 188 2597 
L 1050 2947 
L 1188 2947 
z
" transform="scale(0.015625)"/>
     <path id="TimesNewRomanPSMT-67" d="M 966 1044 
Q 703 1172 562 1401 
Q 422 1631 422 1909 
Q 422 2334 742 2640 
Q 1063 2947 1563 2947 
Q 1972 2947 2272 2747 
L 2878 2747 
Q 3013 2747 3034 2739 
Q 3056 2731 3066 2713 
Q 3084 2684 3084 2613 
Q 3084 2531 3069 2500 
Q 3059 2484 3036 2475 
Q 3013 2466 2878 2466 
L 2506 2466 
Q 2681 2241 2681 1891 
Q 2681 1491 2375 1206 
Q 2069 922 1553 922 
Q 1341 922 1119 984 
Q 981 866 932 777 
Q 884 688 884 625 
Q 884 572 936 522 
Q 988 472 1138 450 
Q 1225 438 1575 428 
Q 2219 413 2409 384 
Q 2700 344 2873 169 
Q 3047 -6 3047 -263 
Q 3047 -616 2716 -925 
Q 2228 -1381 1444 -1381 
Q 841 -1381 425 -1109 
Q 191 -953 191 -784 
Q 191 -709 225 -634 
Q 278 -519 444 -313 
Q 466 -284 763 25 
Q 600 122 533 198 
Q 466 275 466 372 
Q 466 481 555 628 
Q 644 775 966 1044 
z
M 1509 2797 
Q 1278 2797 1122 2612 
Q 966 2428 966 2047 
Q 966 1553 1178 1281 
Q 1341 1075 1591 1075 
Q 1828 1075 1981 1253 
Q 2134 1431 2134 1813 
Q 2134 2309 1919 2591 
Q 1759 2797 1509 2797 
z
M 934 0 
Q 788 -159 713 -296 
Q 638 -434 638 -550 
Q 638 -700 819 -813 
Q 1131 -1006 1722 -1006 
Q 2284 -1006 2551 -807 
Q 2819 -609 2819 -384 
Q 2819 -222 2659 -153 
Q 2497 -84 2016 -72 
Q 1313 -53 934 0 
z
" transform="scale(0.015625)"/>
     <path id="TimesNewRomanPSMT-75" d="M 2709 2863 
L 2709 1128 
Q 2709 631 2732 520 
Q 2756 409 2807 365 
Q 2859 322 2928 322 
Q 3025 322 3147 375 
L 3191 266 
L 2334 -88 
L 2194 -88 
L 2194 519 
Q 1825 119 1631 15 
Q 1438 -88 1222 -88 
Q 981 -88 804 51 
Q 628 191 559 409 
Q 491 628 491 1028 
L 491 2306 
Q 491 2509 447 2587 
Q 403 2666 317 2708 
Q 231 2750 6 2747 
L 6 2863 
L 1009 2863 
L 1009 947 
Q 1009 547 1148 422 
Q 1288 297 1484 297 
Q 1619 297 1789 381 
Q 1959 466 2194 703 
L 2194 2325 
Q 2194 2569 2105 2655 
Q 2016 2741 1734 2747 
L 1734 2863 
L 2709 2863 
z
" transform="scale(0.015625)"/>
     <path id="TimesNewRomanPSMT-72" d="M 1038 2947 
L 1038 2303 
Q 1397 2947 1775 2947 
Q 1947 2947 2059 2842 
Q 2172 2738 2172 2600 
Q 2172 2478 2090 2393 
Q 2009 2309 1897 2309 
Q 1788 2309 1652 2417 
Q 1516 2525 1450 2525 
Q 1394 2525 1328 2463 
Q 1188 2334 1038 2041 
L 1038 669 
Q 1038 431 1097 309 
Q 1138 225 1241 169 
Q 1344 113 1538 113 
L 1538 0 
L 72 0 
L 72 113 
Q 291 113 397 181 
Q 475 231 506 341 
Q 522 394 522 644 
L 522 1753 
Q 522 2253 501 2348 
Q 481 2444 426 2487 
Q 372 2531 291 2531 
Q 194 2531 72 2484 
L 41 2597 
L 906 2947 
L 1038 2947 
z
" transform="scale(0.015625)"/>
     <path id="TimesNewRomanPSMT-65" d="M 681 1784 
Q 678 1147 991 784 
Q 1303 422 1725 422 
Q 2006 422 2214 576 
Q 2422 731 2563 1106 
L 2659 1044 
Q 2594 616 2278 264 
Q 1963 -88 1488 -88 
Q 972 -88 605 314 
Q 238 716 238 1394 
Q 238 2128 614 2539 
Q 991 2950 1559 2950 
Q 2041 2950 2350 2633 
Q 2659 2316 2659 1784 
L 681 1784 
z
M 681 1966 
L 2006 1966 
Q 1991 2241 1941 2353 
Q 1863 2528 1708 2628 
Q 1553 2728 1384 2728 
Q 1125 2728 920 2526 
Q 716 2325 681 1966 
z
" transform="scale(0.015625)"/>
     <path id="TimesNewRomanPSMT-20" transform="scale(0.015625)"/>
     <path id="TimesNewRomanPSMT-37" d="M 644 4238 
L 2916 4238 
L 2916 4119 
L 1503 -88 
L 1153 -88 
L 2419 3728 
L 1253 3728 
Q 900 3728 750 3644 
Q 488 3500 328 3200 
L 238 3234 
L 644 4238 
z
" transform="scale(0.015625)"/>
     <path id="TimesNewRomanPSMT-3a" d="M 903 2950 
Q 1047 2950 1148 2848 
Q 1250 2747 1250 2603 
Q 1250 2459 1148 2357 
Q 1047 2256 903 2256 
Q 759 2256 657 2357 
Q 556 2459 556 2603 
Q 556 2747 657 2848 
Q 759 2950 903 2950 
z
M 897 609 
Q 1044 609 1145 506 
Q 1247 403 1247 259 
Q 1247 116 1144 14 
Q 1041 -88 897 -88 
Q 753 -88 651 14 
Q 550 116 550 259 
Q 550 403 651 506 
Q 753 609 897 609 
z
" transform="scale(0.015625)"/>
     <path id="TimesNewRomanPSMT-53" d="M 2934 4334 
L 2934 2869 
L 2819 2869 
Q 2763 3291 2617 3541 
Q 2472 3791 2203 3937 
Q 1934 4084 1647 4084 
Q 1322 4084 1109 3886 
Q 897 3688 897 3434 
Q 897 3241 1031 3081 
Q 1225 2847 1953 2456 
Q 2547 2138 2764 1967 
Q 2981 1797 3098 1565 
Q 3216 1334 3216 1081 
Q 3216 600 2842 251 
Q 2469 -97 1881 -97 
Q 1697 -97 1534 -69 
Q 1438 -53 1133 45 
Q 828 144 747 144 
Q 669 144 623 97 
Q 578 50 556 -97 
L 441 -97 
L 441 1356 
L 556 1356 
Q 638 900 775 673 
Q 913 447 1195 297 
Q 1478 147 1816 147 
Q 2206 147 2432 353 
Q 2659 559 2659 841 
Q 2659 997 2573 1156 
Q 2488 1316 2306 1453 
Q 2184 1547 1640 1851 
Q 1097 2156 867 2337 
Q 638 2519 519 2737 
Q 400 2956 400 3219 
Q 400 3675 750 4004 
Q 1100 4334 1641 4334 
Q 1978 4334 2356 4169 
Q 2531 4091 2603 4091 
Q 2684 4091 2736 4139 
Q 2788 4188 2819 4334 
L 2934 4334 
z
" transform="scale(0.015625)"/>
     <path id="TimesNewRomanPSMT-6f" d="M 1600 2947 
Q 2250 2947 2644 2453 
Q 2978 2031 2978 1484 
Q 2978 1100 2793 706 
Q 2609 313 2286 112 
Q 1963 -88 1566 -88 
Q 919 -88 538 428 
Q 216 863 216 1403 
Q 216 1797 411 2186 
Q 606 2575 925 2761 
Q 1244 2947 1600 2947 
z
M 1503 2744 
Q 1338 2744 1170 2645 
Q 1003 2547 900 2300 
Q 797 2053 797 1666 
Q 797 1041 1045 587 
Q 1294 134 1700 134 
Q 2003 134 2200 384 
Q 2397 634 2397 1244 
Q 2397 2006 2069 2444 
Q 1847 2744 1503 2744 
z
" transform="scale(0.015625)"/>
     <path id="TimesNewRomanPSMT-6c" d="M 1184 4444 
L 1184 647 
Q 1184 378 1223 290 
Q 1263 203 1344 158 
Q 1425 113 1647 113 
L 1647 0 
L 244 0 
L 244 113 
Q 441 113 512 153 
Q 584 194 625 287 
Q 666 381 666 647 
L 666 3247 
Q 666 3731 644 3842 
Q 622 3953 573 3993 
Q 525 4034 450 4034 
Q 369 4034 244 3984 
L 191 4094 
L 1044 4444 
L 1184 4444 
z
" transform="scale(0.015625)"/>
     <path id="TimesNewRomanPSMT-74" d="M 1031 3803 
L 1031 2863 
L 1700 2863 
L 1700 2644 
L 1031 2644 
L 1031 788 
Q 1031 509 1111 412 
Q 1191 316 1316 316 
Q 1419 316 1516 380 
Q 1613 444 1666 569 
L 1788 569 
Q 1678 263 1478 108 
Q 1278 -47 1066 -47 
Q 922 -47 784 33 
Q 647 113 581 261 
Q 516 409 516 719 
L 516 2644 
L 63 2644 
L 63 2747 
Q 234 2816 414 2980 
Q 594 3144 734 3369 
Q 806 3488 934 3803 
L 1031 3803 
z
" transform="scale(0.015625)"/>
     <path id="TimesNewRomanPSMT-6e" d="M 1034 2341 
Q 1538 2947 1994 2947 
Q 2228 2947 2397 2830 
Q 2566 2713 2666 2444 
Q 2734 2256 2734 1869 
L 2734 647 
Q 2734 375 2778 278 
Q 2813 200 2889 156 
Q 2966 113 3172 113 
L 3172 0 
L 1756 0 
L 1756 113 
L 1816 113 
Q 2016 113 2095 173 
Q 2175 234 2206 353 
Q 2219 400 2219 647 
L 2219 1819 
Q 2219 2209 2117 2386 
Q 2016 2563 1775 2563 
Q 1403 2563 1034 2156 
L 1034 647 
Q 1034 356 1069 288 
Q 1113 197 1189 155 
Q 1266 113 1500 113 
L 1500 0 
L 84 0 
L 84 113 
L 147 113 
Q 366 113 442 223 
Q 519 334 519 647 
L 519 1709 
Q 519 2225 495 2337 
Q 472 2450 423 2490 
Q 375 2531 294 2531 
Q 206 2531 84 2484 
L 38 2597 
L 900 2947 
L 1034 2947 
L 1034 2341 
z
" transform="scale(0.015625)"/>
     <path id="TimesNewRomanPSMT-73" d="M 2050 2947 
L 2050 1972 
L 1947 1972 
Q 1828 2431 1642 2597 
Q 1456 2763 1169 2763 
Q 950 2763 815 2647 
Q 681 2531 681 2391 
Q 681 2216 781 2091 
Q 878 1963 1175 1819 
L 1631 1597 
Q 2266 1288 2266 781 
Q 2266 391 1970 151 
Q 1675 -88 1309 -88 
Q 1047 -88 709 6 
Q 606 38 541 38 
Q 469 38 428 -44 
L 325 -44 
L 325 978 
L 428 978 
Q 516 541 762 319 
Q 1009 97 1316 97 
Q 1531 97 1667 223 
Q 1803 350 1803 528 
Q 1803 744 1651 891 
Q 1500 1038 1047 1263 
Q 594 1488 453 1669 
Q 313 1847 313 2119 
Q 313 2472 555 2709 
Q 797 2947 1181 2947 
Q 1350 2947 1591 2875 
Q 1750 2828 1803 2828 
Q 1853 2828 1881 2850 
Q 1909 2872 1947 2947 
L 2050 2947 
z
" transform="scale(0.015625)"/>
     <path id="TimesNewRomanPSMT-70" d="M -6 2578 
L 875 2934 
L 994 2934 
L 994 2266 
Q 1216 2644 1439 2795 
Q 1663 2947 1909 2947 
Q 2341 2947 2628 2609 
Q 2981 2197 2981 1534 
Q 2981 794 2556 309 
Q 2206 -88 1675 -88 
Q 1444 -88 1275 -22 
Q 1150 25 994 166 
L 994 -706 
Q 994 -1000 1030 -1079 
Q 1066 -1159 1155 -1206 
Q 1244 -1253 1478 -1253 
L 1478 -1369 
L -22 -1369 
L -22 -1253 
L 56 -1253 
Q 228 -1256 350 -1188 
Q 409 -1153 442 -1076 
Q 475 -1000 475 -688 
L 475 2019 
Q 475 2297 450 2372 
Q 425 2447 370 2484 
Q 316 2522 222 2522 
Q 147 2522 31 2478 
L -6 2578 
z
M 994 2081 
L 994 1013 
Q 994 666 1022 556 
Q 1066 375 1236 237 
Q 1406 100 1666 100 
Q 1978 100 2172 344 
Q 2425 663 2425 1241 
Q 2425 1897 2138 2250 
Q 1938 2494 1663 2494 
Q 1513 2494 1366 2419 
Q 1253 2363 994 2081 
z
" transform="scale(0.015625)"/>
     <path id="TimesNewRomanPSMT-61" d="M 1822 413 
Q 1381 72 1269 19 
Q 1100 -59 909 -59 
Q 613 -59 420 144 
Q 228 347 228 678 
Q 228 888 322 1041 
Q 450 1253 767 1440 
Q 1084 1628 1822 1897 
L 1822 2009 
Q 1822 2438 1686 2597 
Q 1550 2756 1291 2756 
Q 1094 2756 978 2650 
Q 859 2544 859 2406 
L 866 2225 
Q 866 2081 792 2003 
Q 719 1925 600 1925 
Q 484 1925 411 2006 
Q 338 2088 338 2228 
Q 338 2497 613 2722 
Q 888 2947 1384 2947 
Q 1766 2947 2009 2819 
Q 2194 2722 2281 2516 
Q 2338 2381 2338 1966 
L 2338 994 
Q 2338 584 2353 492 
Q 2369 400 2405 369 
Q 2441 338 2488 338 
Q 2538 338 2575 359 
Q 2641 400 2828 588 
L 2828 413 
Q 2478 -56 2159 -56 
Q 2006 -56 1915 50 
Q 1825 156 1822 413 
z
M 1822 616 
L 1822 1706 
Q 1350 1519 1213 1441 
Q 966 1303 859 1153 
Q 753 1003 753 825 
Q 753 600 887 451 
Q 1022 303 1197 303 
Q 1434 303 1822 616 
z
" transform="scale(0.015625)"/>
     <path id="TimesNewRomanPSMT-63" d="M 2631 1088 
Q 2516 522 2178 217 
Q 1841 -88 1431 -88 
Q 944 -88 581 321 
Q 219 731 219 1428 
Q 219 2103 620 2525 
Q 1022 2947 1584 2947 
Q 2006 2947 2278 2723 
Q 2550 2500 2550 2259 
Q 2550 2141 2473 2067 
Q 2397 1994 2259 1994 
Q 2075 1994 1981 2113 
Q 1928 2178 1911 2362 
Q 1894 2547 1784 2644 
Q 1675 2738 1481 2738 
Q 1169 2738 978 2506 
Q 725 2200 725 1697 
Q 725 1184 976 792 
Q 1228 400 1656 400 
Q 1963 400 2206 609 
Q 2378 753 2541 1131 
L 2631 1088 
z
" transform="scale(0.015625)"/>
     <path id="TimesNewRomanPSMT-79" d="M 38 2863 
L 1372 2863 
L 1372 2747 
L 1306 2747 
Q 1166 2747 1095 2686 
Q 1025 2625 1025 2534 
Q 1025 2413 1128 2197 
L 1825 753 
L 2466 2334 
Q 2519 2463 2519 2588 
Q 2519 2644 2497 2672 
Q 2472 2706 2419 2726 
Q 2366 2747 2231 2747 
L 2231 2863 
L 3163 2863 
L 3163 2747 
Q 3047 2734 2984 2696 
Q 2922 2659 2847 2556 
Q 2819 2513 2741 2316 
L 1575 -541 
Q 1406 -956 1132 -1168 
Q 859 -1381 606 -1381 
Q 422 -1381 303 -1275 
Q 184 -1169 184 -1031 
Q 184 -900 270 -820 
Q 356 -741 506 -741 
Q 609 -741 788 -809 
Q 913 -856 944 -856 
Q 1038 -856 1148 -759 
Q 1259 -663 1372 -384 
L 1575 113 
L 547 2272 
Q 500 2369 397 2513 
Q 319 2622 269 2659 
Q 197 2709 38 2747 
L 38 2863 
z
" transform="scale(0.015625)"/>
     <path id="TimesNewRomanPSMT-48" d="M 1316 2272 
L 3284 2272 
L 3284 3484 
Q 3284 3809 3244 3913 
Q 3213 3991 3113 4047 
Q 2978 4122 2828 4122 
L 2678 4122 
L 2678 4238 
L 4491 4238 
L 4491 4122 
L 4341 4122 
Q 4191 4122 4056 4050 
Q 3956 4000 3920 3898 
Q 3884 3797 3884 3484 
L 3884 750 
Q 3884 428 3925 325 
Q 3956 247 4053 191 
Q 4191 116 4341 116 
L 4491 116 
L 4491 0 
L 2678 0 
L 2678 116 
L 2828 116 
Q 3088 116 3206 269 
Q 3284 369 3284 750 
L 3284 2041 
L 1316 2041 
L 1316 750 
Q 1316 428 1356 325 
Q 1388 247 1488 191 
Q 1622 116 1772 116 
L 1925 116 
L 1925 0 
L 109 0 
L 109 116 
L 259 116 
Q 522 116 641 269 
Q 716 369 716 750 
L 716 3484 
Q 716 3809 675 3913 
Q 644 3991 547 4047 
Q 409 4122 259 4122 
L 109 4122 
L 109 4238 
L 1925 4238 
L 1925 4122 
L 1772 4122 
Q 1622 4122 1488 4050 
Q 1391 4000 1353 3898 
Q 1316 3797 1316 3484 
L 1316 2272 
z
" transform="scale(0.015625)"/>
     <path id="TimesNewRomanPSMT-6d" d="M 1050 2338 
Q 1363 2650 1419 2697 
Q 1559 2816 1721 2881 
Q 1884 2947 2044 2947 
Q 2313 2947 2506 2790 
Q 2700 2634 2766 2338 
Q 3088 2713 3309 2830 
Q 3531 2947 3766 2947 
Q 3994 2947 4170 2830 
Q 4347 2713 4450 2447 
Q 4519 2266 4519 1878 
L 4519 647 
Q 4519 378 4559 278 
Q 4591 209 4675 161 
Q 4759 113 4950 113 
L 4950 0 
L 3538 0 
L 3538 113 
L 3597 113 
Q 3781 113 3884 184 
Q 3956 234 3988 344 
Q 4000 397 4000 647 
L 4000 1878 
Q 4000 2228 3916 2372 
Q 3794 2572 3525 2572 
Q 3359 2572 3192 2489 
Q 3025 2406 2788 2181 
L 2781 2147 
L 2788 2013 
L 2788 647 
Q 2788 353 2820 281 
Q 2853 209 2943 161 
Q 3034 113 3253 113 
L 3253 0 
L 1806 0 
L 1806 113 
Q 2044 113 2133 169 
Q 2222 225 2256 338 
Q 2272 391 2272 647 
L 2272 1878 
Q 2272 2228 2169 2381 
Q 2031 2581 1784 2581 
Q 1616 2581 1450 2491 
Q 1191 2353 1050 2181 
L 1050 647 
Q 1050 366 1089 281 
Q 1128 197 1204 155 
Q 1281 113 1516 113 
L 1516 0 
L 100 0 
L 100 113 
Q 297 113 375 155 
Q 453 197 493 289 
Q 534 381 534 647 
L 534 1741 
Q 534 2213 506 2350 
Q 484 2453 437 2492 
Q 391 2531 309 2531 
Q 222 2531 100 2484 
L 53 2597 
L 916 2947 
L 1050 2947 
L 1050 2338 
z
" transform="scale(0.015625)"/>
     <path id="TimesNewRomanPSMT-50" d="M 1313 1984 
L 1313 750 
Q 1313 350 1400 253 
Q 1519 116 1759 116 
L 1922 116 
L 1922 0 
L 106 0 
L 106 116 
L 266 116 
Q 534 116 650 291 
Q 713 388 713 750 
L 713 3488 
Q 713 3888 628 3984 
Q 506 4122 266 4122 
L 106 4122 
L 106 4238 
L 1659 4238 
Q 2228 4238 2556 4120 
Q 2884 4003 3109 3725 
Q 3334 3447 3334 3066 
Q 3334 2547 2992 2222 
Q 2650 1897 2025 1897 
Q 1872 1897 1694 1919 
Q 1516 1941 1313 1984 
z
M 1313 2163 
Q 1478 2131 1606 2115 
Q 1734 2100 1825 2100 
Q 2150 2100 2386 2351 
Q 2622 2603 2622 3003 
Q 2622 3278 2509 3514 
Q 2397 3750 2190 3867 
Q 1984 3984 1722 3984 
Q 1563 3984 1313 3925 
L 1313 2163 
z
" transform="scale(0.015625)"/>
     <path id="TimesNewRomanPSMT-2e" d="M 800 606 
Q 947 606 1047 504 
Q 1147 403 1147 259 
Q 1147 116 1045 14 
Q 944 -88 800 -88 
Q 656 -88 554 14 
Q 453 116 453 259 
Q 453 406 554 506 
Q 656 606 800 606 
z
" transform="scale(0.015625)"/>
    </defs>
    <use xlink:href="#TimesNewRomanPSMT-46"/>
    <use xlink:href="#TimesNewRomanPSMT-69" x="55.615234"/>
    <use xlink:href="#TimesNewRomanPSMT-67" x="83.398438"/>
    <use xlink:href="#TimesNewRomanPSMT-75" x="133.398438"/>
    <use xlink:href="#TimesNewRomanPSMT-72" x="183.398438"/>
    <use xlink:href="#TimesNewRomanPSMT-65" x="216.699219"/>
    <use xlink:href="#TimesNewRomanPSMT-20" x="261.083984"/>
    <use xlink:href="#TimesNewRomanPSMT-31" x="286.083984"/>
    <use xlink:href="#TimesNewRomanPSMT-37" x="336.083984"/>
    <use xlink:href="#TimesNewRomanPSMT-3a" x="386.083984"/>
    <use xlink:href="#TimesNewRomanPSMT-20" x="413.867188"/>
    <use xlink:href="#TimesNewRomanPSMT-53" x="438.867188"/>
    <use xlink:href="#TimesNewRomanPSMT-6f" x="494.482422"/>
    <use xlink:href="#TimesNewRomanPSMT-6c" x="544.482422"/>
    <use xlink:href="#TimesNewRomanPSMT-75" x="572.265625"/>
    <use xlink:href="#TimesNewRomanPSMT-74" x="622.265625"/>
    <use xlink:href="#TimesNewRomanPSMT-69" x="650.048828"/>
    <use xlink:href="#TimesNewRomanPSMT-6f" x="677.832031"/>
    <use xlink:href="#TimesNewRomanPSMT-6e" x="727.832031"/>
    <use xlink:href="#TimesNewRomanPSMT-20" x="777.832031"/>
    <use xlink:href="#TimesNewRomanPSMT-73" x="802.832031"/>
    <use xlink:href="#TimesNewRomanPSMT-70" x="841.748047"/>
    <use xlink:href="#TimesNewRomanPSMT-61" x="891.748047"/>
    <use xlink:href="#TimesNewRomanPSMT-63" x="936.132812"/>
    <use xlink:href="#TimesNewRomanPSMT-65" x="980.517578"/>
    <use xlink:href="#TimesNewRomanPSMT-20" x="1024.902344"/>
    <use xlink:href="#TimesNewRomanPSMT-61" x="1049.902344"/>
    <use xlink:href="#TimesNewRomanPSMT-6e" x="1094.287109"/>
    <use xlink:href="#TimesNewRomanPSMT-61" x="1144.287109"/>
    <use xlink:href="#TimesNewRomanPSMT-6c" x="1188.671875"/>
    <use xlink:href="#TimesNewRomanPSMT-79" x="1216.455078"/>
    <use xlink:href="#TimesNewRomanPSMT-73" x="1266.455078"/>
    <use xlink:href="#TimesNewRomanPSMT-69" x="1305.371094"/>
    <use xlink:href="#TimesNewRomanPSMT-73" x="1333.154297"/>
    <use xlink:href="#TimesNewRomanPSMT-20" x="1372.070312"/>
    <use xlink:href="#TimesNewRomanPSMT-6f" x="1397.070312"/>
    <use xlink:href="#TimesNewRomanPSMT-6e" x="1447.070312"/>
    <use xlink:href="#TimesNewRomanPSMT-20" x="1497.070312"/>
    <use xlink:href="#TimesNewRomanPSMT-48" x="1522.070312"/>
    <use xlink:href="#TimesNewRomanPSMT-61" x="1594.287109"/>
    <use xlink:href="#TimesNewRomanPSMT-6d" x="1638.671875"/>
    <use xlink:href="#TimesNewRomanPSMT-69" x="1716.455078"/>
    <use xlink:href="#TimesNewRomanPSMT-6c" x="1744.238281"/>
    <use xlink:href="#TimesNewRomanPSMT-74" x="1772.021484"/>
    <use xlink:href="#TimesNewRomanPSMT-6f" x="1799.804688"/>
    <use xlink:href="#TimesNewRomanPSMT-6e" x="1849.804688"/>
    <use xlink:href="#TimesNewRomanPSMT-69" x="1899.804688"/>
    <use xlink:href="#TimesNewRomanPSMT-61" x="1927.587891"/>
    <use xlink:href="#TimesNewRomanPSMT-6e" x="1971.972656"/>
    <use xlink:href="#TimesNewRomanPSMT-20" x="2021.972656"/>
    <use xlink:href="#TimesNewRomanPSMT-50" x="2046.972656"/>
    <use xlink:href="#TimesNewRomanPSMT-72" x="2102.587891"/>
    <use xlink:href="#TimesNewRomanPSMT-75" x="2135.888672"/>
    <use xlink:href="#TimesNewRomanPSMT-6e" x="2185.888672"/>
    <use xlink:href="#TimesNewRomanPSMT-69" x="2235.888672"/>
    <use xlink:href="#TimesNewRomanPSMT-6e" x="2263.671875"/>
    <use xlink:href="#TimesNewRomanPSMT-67" x="2313.671875"/>
    <use xlink:href="#TimesNewRomanPSMT-2e" x="2363.671875"/>
   </g>
  </g>
 </g>
 <defs>
  <clipPath id="p209f894d88">
   <rect x="120.7" y="7.2" width="475.2" height="388.8"/>
  </clipPath>
  <clipPath id="p57dd54e863">
   <rect x="120.7" y="568.8" width="475.2" height="388.8"/>
  </clipPath>
  <clipPath id="pb7c5327547">
   <rect x="754.3" y="7.2" width="475.2" height="388.8"/>
  </clipPath>
  <clipPath id="pda74e4647d">
   <rect x="754.3" y="568.8" width="475.2" height="388.8"/>
  </clipPath>
  <clipPath id="p954e1c89c6">
   <rect x="1467.1" y="7.2" width="554.4" height="950.4"/>
  </clipPath>
 </defs>
</svg>
